<svg width="36" height="26" viewBox="0 0 36 26" fill="none" xmlns="http://www.w3.org/2000/svg">
<path d="M25.5 23C25.8978 23 26.2794 22.842 26.5607 22.5607C26.842 22.2794 27 21.8978 27 21.5V18C27 17.6022 26.842 17.2206 26.5607 16.9393C26.2794 16.658 25.8978 16.5 25.5 16.5C24.33 16.5 23.18 16.32 22.08 15.95C21.817 15.867 21.5363 15.8576 21.2683 15.9228C21.0004 15.988 20.7554 16.1254 20.56 16.32L19.12 17.76C16.6322 16.4024 14.5876 14.3578 13.23 11.87L14.66 10.44C15.07 10.05 15.22 9.47 15.04 8.91C14.68 7.82 14.5 6.67 14.5 5.5C14.5 5.10218 14.342 4.72064 14.0607 4.43934C13.7794 4.15804 13.3978 4 13 4H9.5C9.10218 4 8.72064 4.15804 8.43934 4.43934C8.15804 4.72064 8 5.10218 8 5.5C8 15.15 15.85 23 25.5 23ZM9.5 5H13C13.1326 5 13.2598 5.05268 13.3536 5.14645C13.4473 5.24021 13.5 5.36739 13.5 5.5C13.5 6.78 13.7 8.03 14.09 9.22C14.14 9.36 14.13 9.56 13.97 9.72L12 11.68C13.65 14.91 16.07 17.33 19.31 19L21.26 17.03C21.4 16.89 21.59 16.85 21.77 16.9C22.97 17.3 24.22 17.5 25.5 17.5C25.6326 17.5 25.7598 17.5527 25.8536 17.6464C25.9473 17.7402 26 17.8674 26 18V21.5C26 21.6326 25.9473 21.7598 25.8536 21.8536C25.7598 21.9473 25.6326 22 25.5 22C16.4 22 9 14.6 9 5.5C9 5.36739 9.05268 5.24021 9.14645 5.14645C9.24021 5.05268 9.36739 5 9.5 5Z" fill="white"/>
</svg>
